# xmcd
#
# Track frame offsets: 
#        150
#        33135
#        68590
#        81267
#        96467
#        101370
#        114545
#        123387
#        126930
#
# Disc length: 1836 seconds
#
# Revision: 1
# Processed by: cddbd v1.5.2PL0 Copyright (c) Steve Scherf et al.
# Submitted via: ExactAudioCopy v1.5
#
DISCID=71072a09
DTITLE=Andreas Vollenweider - Behind the Gardens
DYEAR=1981
DGENRE=New Age
TTITLE0=Behind the Gardens-Behind the Wall-Under the Tree
TTITLE1=Pyramid-In the Wood-In the Bright Light
TTITLE2=Micro-Macro
TTITLE3=Skin and Skin
TTITLE4=Moonlight, Wrapped Around Us
TTITLE5=Lion and Sheep
TTITLE6=Sunday
TTITLE7=Afternoon
TTITLE8=Hands and Clouds
EXTD=YEAR: 1981
EXTT0=
EXTT1=
EXTT2=
EXTT3=
EXTT4=
EXTT5=
EXTT6=
EXTT7=
EXTT8=
PLAYORDER=
